/* XPM */
static char *rftg[] = {
/* columns rows colors chars-per-pixel */
"32 32 88 1",
"  c #0A1723",
". c #0D1925",
"X c #0E1C2B",
"o c #101C27",
"O c #111D2B",
"+ c #0F1E30",
"@ c #111F31",
"# c #12202E",
"$ c #132235",
"% c #192437",
"& c #15243A",
"* c #18273C",
"= c #17283E",
"- c #19283B",
"; c #172740",
": c #172941",
"> c #1A2B44",
", c #1C2E4B",
"< c #1E314D",
"1 c #1E2F50",
"2 c #1E3151",
"3 c #202E44",
"4 c #223247",
"5 c #23334E",
"6 c #29384F",
"7 c #243654",
"8 c #283751",
"9 c #2B3A54",
"0 c #22375A",
"q c #243A5E",
"w c #2C3D5A",
"e c #253C64",
"r c #2A3D61",
"t c #273F69",
"y c #283F6B",
"u c #31415C",
"i c #2C4065",
"p c #2D436B",
"a c #334363",
"s c #3A4B67",
"d c #32466C",
"f c #35486B",
"g c #3B4B6B",
"h c #2F4772",
"j c #2F4875",
"k c #314772",
"l c #324975",
"z c #3A4D74",
"x c #344D7B",
"c c #384E7C",
"v c #37507C",
"b c #3A517A",
"n c #404F67",
"m c #43526D",
"M c #405275",
"N c #485773",
"B c #44567B",
"V c #46597D",
"C c #4A5C7C",
"Z c #54627D",
"A c #365182",
"S c #3E568A",
"D c #415781",
"F c #435983",
"G c #4B5D83",
"H c #415A8A",
"J c #495F88",
"K c #465E93",
"L c #4E6085",
"P c #4B618A",
"I c #546384",
"U c #5E6B86",
"Y c #51658C",
"T c #57698D",
"R c #5E6D8B",
"E c #566A94",
"W c #5A6C95",
"Q c #596D99",
"! c #626F8B",
"~ c #63708C",
"^ c #637191",
"/ c #697895",
"( c #627398",
") c #5E72A0",
"_ c #72819D",
"` c #7E8CAC",
"' c #8E9DBC",
"] c None",
/* pixels */
"]]]]]]]]]]]]]]]]]]]]]]]]]]]]]]]]",
"]]]]]]]]]]]]]]]]]]]]]]]]]]]]]]]]",
"]]]]]]]]]]]]]]]]]]]]]]]]]]]]]]]]",
"]]]]]]]]]]]]]]]]]]]]]]]]]]]]]]]]",
"]]]]]]]]]]]]]]]]]]]]]]]]]]]]]]]]",
"]]]]]]]]]]]]]]]]]]]]]]]]]]]]]]]]",
"]]]]]]]]]]]]]]]]]]]]]]]]]]]]]]]]",
"]]]]]]]]]]]]]]]]]]]]]]]]]]]]]]]]",
"#O$+=-=-->.#*%@@*-#O.Ooo#o.OOOo.",
"XO=<22<2q0<<1122,2,,,,,,,4,,,>X ",
"O>SjjjjjjjlxlAlljjjjllhhlljklJ> ",
" 6C-u89u7u5u7;998u8u5*uw-*5w$C9 ",
" 6CuEYbQEsFEa>EBGgQQL-VMVV)G>C9 ",
".<z7fvSSHelSr>c7lpHdl$w0kcKc-k8 ",
" >i++$22>2,2>>>>,1>@=$*$-&;,@e>X",
".>q.+X+>++$+@y>>&@++<>XXXX.XX0>O",
" 5l>cxx02xcx7x>kxAf5k%<iw*X<5d5.",
".6CgB>93*wuCIT*5ra(7VUW9I4 szCuX",
" 9ZmmXZUm/U_!^,~!!`>9'!@!4 nNZu ",
" 6BuPicYGbiFGPfQddQwYaGfVbiGgb6 ",
" ,d&rpp05ppp,,0rpplA0+&5:ipAip< ",
".&iieeeeeeeeteeee,t0eeeeeeeiqp& ",
".X$:-&&&$*:>;;>,1y,@@&&&&$%$+$. ",
".#&+#OOoO$,*OX=,,2-$XOX XX......",
"]]]]]]]]]]]]]]]]]]]]]]]]]]]]]]]]",
"]]]]]]]]]]]]]]]]]]]]]]]]]]]]]]]]",
"]]]]]]]]]]]]]]]]]]]]]]]]]]]]]]]]",
"]]]]]]]]]]]]]]]]]]]]]]]]]]]]]]]]",
"]]]]]]]]]]]]]]]]]]]]]]]]]]]]]]]]",
"]]]]]]]]]]]]]]]]]]]]]]]]]]]]]]]]",
"]]]]]]]]]]]]]]]]]]]]]]]]]]]]]]]]",
"]]]]]]]]]]]]]]]]]]]]]]]]]]]]]]]]"
};
